<svg width="24" height="24" viewBox="0 0 24 24" fill="none"
    xmlns="http://www.w3.org/2000/svg">
    <g clip-path="url(#clip0)">
        <path d="M21.354 16.4872C20.016 15.9812 19.121 14.7662 19.02 13.3172C18.921 11.9052 19.613 10.6512 20.871 9.96216L21.917 9.38916L21.17 8.45916C19.915 6.89616 18.119 5.96216 16.366 5.96216C15.151 5.96216 14.308 6.28016 13.631 6.53616C13.153 6.71716 12.776 6.85916 12.362 6.85916C11.89 6.85916 11.424 6.69316 10.884 6.50116C10.176 6.24916 9.37398 5.96316 8.34398 5.96316C6.35398 5.96316 4.34698 7.15116 3.10698 9.06116C1.25598 11.9102 1.76398 16.7952 4.31498 20.6772C5.32598 22.2152 6.74298 23.9822 8.74998 24.0002C8.76298 24.0002 8.77598 24.0002 8.78898 24.0002C10.432 24.0002 10.792 23.1242 12.387 23.1142C14.129 23.1962 14.349 24.0072 15.976 23.9962C17.937 23.9782 19.351 22.2252 20.475 20.5122C21.139 19.5052 21.396 18.9782 21.913 17.8342L22.351 16.8642L21.354 16.4872Z" fill="white"/>
        <path d="M15.0999 3.45021C15.7499 2.61621 16.2429 1.43921 16.0639 0.236206C15.0019 0.309206 13.7619 0.984206 13.0369 1.86421C12.3789 2.66321 11.8359 3.84721 12.0469 4.99921C13.2049 5.03521 14.4039 4.34321 15.0999 3.45021Z" fill="white"/>
    </g>
    <defs>
        <clipPath id="clip0">
            <rect width="24" height="24" fill="white" transform="translate(0 0.000244141)"/>
        </clipPath>
    </defs>
</svg>
