<?xml version="1.0" encoding="UTF-8"?>
<svg width="24px" height="14px" viewBox="0 0 24 14" version="1.1" 
	xmlns="http://www.w3.org/2000/svg" 
	xmlns:xlink="http://www.w3.org/1999/xlink">
	<!-- Generator: sketchtool 55.2 (78181) - https://sketchapp.com -->
	<title>8D7D096C-762B-4252-89A2-E5DCE76254E3@1.00x</title>
	<desc>Created with sketchtool.</desc>
	<g stroke="none" stroke-width="1" fill="none" fill-rule="evenodd">
		<g transform="translate(-768.000000, -373.000000)" fill="#FFFFFF" fill-rule="nonzero">
			<g id="Sign-up-modal" transform="translate(392.000000, 111.999700)">
				<g id="Login-Fields" transform="translate(80.000000, 184.000300)">
					<g id="Password" transform="translate(0.000000, 64.000000)">
						<g id="Eye" transform="translate(296.000000, 13.000000)">
							<path d="M12,3.75 C13.7949254,3.75 15.25,5.20507456 15.25,7 C15.25,8.79492544 13.7949254,10.25 12,10.25 C10.2050746,10.25 8.75,8.79492544 8.75,7 C8.75,5.20507456 10.2050746,3.75 12,3.75 L12,3.75 Z M12,3 C9.790861,3 8,4.790861 8,7 C8,9.209139 9.790861,11 12,11 C14.209139,11 16,9.209139 16,7 C16,4.790861 14.209139,3 12,3 L12,3 Z" id="Shape"></path>
							<path d="M11.9126984,0.75 L12.0623583,0.75 C17.0510204,0.75 19.6077098,3.11518448 23,7.02956481 C19.1836735,11.4051561 16.6893424,13.25 12.0623583,13.25 L11.9126984,13.25 C7.3106576,13.25 4.80385488,11.4051561 1,7.02956481 C4.39229025,3.10335856 7.01133787,0.75 11.9126984,0.75 L11.9126984,0.75 Z M12.0299252,0 L11.8862843,0 C6.49975062,0 3.73466334,2.65108783 0,7.02820306 C3.73466334,11.3940371 6.49975062,14 11.8862843,14 L12.0299252,14 C17.4164589,14 20.2054863,11.3940371 24,7.02820306 C20.2054863,2.66236906 17.4164589,0 12.0299252,0 Z" id="Shape"></path>
						</g>
					</g>
				</g>
			</g>
		</g>
	</g>
</svg>